<?xml version="1.0" encoding="utf-8"?>
<svg width="108dp" height="108dp" viewBox="20.785 33.148 35.97 38.12" xmlns="http://www.w3.org/2000/svg">
  <path d="M 19.063 52.008 Z M 42.188 34.305 C 45.697 35.061 48.903 36.97 51.279 39.716 C 54.486 43.336 55.995 47.394 56.033 52.207 C 56.071 65.295 43.056 74.286 31.776 68.955 C 21.855 64.301 18.422 50.854 24.759 41.506 C 25.59 40.273 26.382 39.279 26.571 39.279 C 26.721 39.279 29.211 45.444 32.115 53.002 C 34.983 60.561 37.473 66.727 37.586 66.727 C 37.85 66.727 44.075 58.93 44.263 58.373 C 44.339 58.174 42.755 53.718 40.754 48.468 L 37.095 38.921 L 33.927 37.608 C 32.191 36.891 30.758 36.175 30.758 36.056 C 30.758 35.658 33.965 34.465 35.964 34.107 C 38.604 33.629 39.396 33.669 42.188 34.305 Z M 43.32 43.773 C 44.15 46.001 47.507 54.633 47.62 54.792 C 47.884 55.11 51.091 51.053 51.128 50.377 C 51.128 50.019 50.789 48.866 50.374 47.792 C 49.657 45.961 49.431 45.762 47.055 44.768 C 43.018 43.017 43.056 43.017 43.32 43.773 Z" style="fill: rgb(227, 233, 241);"/>
</svg>